<?xml version="1.0" encoding="UTF-8" standalone="no"?><!DOCTYPE svg PUBLIC "-//W3C//DTD SVG 1.1//EN" "http://www.w3.org/Graphics/SVG/1.1/DTD/svg11.dtd"><svg width="100%" height="100%" viewBox="0 0 109 90" version="1.1" xmlns="http://www.w3.org/2000/svg" xmlns:xlink="http://www.w3.org/1999/xlink" xml:space="preserve" xmlns:serif="http://www.serif.com/" style="fill-rule:evenodd;clip-rule:evenodd;stroke-linejoin:round;stroke-miterlimit:1.41421;"><g id="code-tag" serif:id="code tag"><path d="M17.23,73.918c1.17,1.832 3.15,2.833 5.173,2.833c1.13,0 2.274,-0.312 3.296,-0.966c2.854,-1.824 3.689,-5.616 1.865,-8.469l-14.153,-22.156l14.155,-22.153c1.824,-2.854 0.989,-6.646 -1.866,-8.469c-2.855,-1.823 -6.645,-0.989 -8.469,1.865l-16.266,25.455c-1.287,2.013 -1.287,4.591 0,6.604l16.265,25.456Z" style="fill-opacity:0.152941;fill-rule:nonzero;"/><path d="M83.171,75.784c1.023,0.654 2.166,0.965 3.296,0.965c2.023,0 4.003,-0.999 5.173,-2.832l16.265,-25.455c1.287,-2.013 1.287,-4.591 0,-6.604l-16.263,-25.455c-1.823,-2.855 -5.618,-3.691 -8.47,-1.866c-2.854,1.824 -3.689,5.617 -1.865,8.469l14.155,22.154l-14.156,22.155c-1.824,2.852 -0.989,6.645 1.865,8.469Z" style="fill-opacity:0.152941;fill-rule:nonzero;"/><path d="M33.202,89.18c0.856,0.41 1.758,0.605 2.648,0.605c2.285,0 4.479,-1.283 5.534,-3.482l37.173,-77.518c1.465,-3.054 0.177,-6.717 -2.877,-8.181c-3.055,-1.464 -6.718,-0.176 -8.181,2.878l-37.175,77.517c-1.464,3.054 -0.176,6.718 2.878,8.181Z" style="fill-opacity:0.152941;fill-rule:nonzero;"/></g></svg>