<?xml version="1.0" encoding="UTF-8" standalone="no"?><!DOCTYPE svg PUBLIC "-//W3C//DTD SVG 1.1//EN" "http://www.w3.org/Graphics/SVG/1.1/DTD/svg11.dtd"><svg width="100%" height="100%" viewBox="0 0 156 174" version="1.1" xmlns="http://www.w3.org/2000/svg" xmlns:xlink="http://www.w3.org/1999/xlink" xml:space="preserve" xmlns:serif="http://www.serif.com/" style="fill-rule:evenodd;clip-rule:evenodd;stroke-linecap:square;stroke-miterlimit:1.5;"><g id="developer"><rect x="53.74" y="95.537" width="47.768" height="42.793" style="fill:#e6b47d;"/><path d="M53.74,95.537l0,24.372c28.252,3.696 47.768,-21.387 47.768,-21.387l0,-2.985l-47.768,0Z" style="fill:#d2a073;fill-rule:nonzero;"/><path d="M113.45,53.889l0,-18.063l-71.653,0l0,44.153c0,5.989 2.763,11.582 7.363,14.904l13.274,9.587c2.716,1.962 5.908,3.009 9.173,3.009l12.034,0c3.264,0 6.456,-1.047 9.171,-3.009l13.275,-9.587c4.6,-3.322 7.363,-8.915 7.363,-14.904l0,-5.491c3.406,-0.692 5.971,-3.703 5.971,-7.314l0,-5.971c0,-3.611 -2.564,-6.622 -5.971,-7.314Z" style="fill:#f0c891;fill-rule:nonzero;"/><path d="M60.222,49.772c9.925,1.735 27.66,3.968 53.228,3.968l0,-17.914l-71.653,0l0,18.063c-3.407,0.692 -5.971,3.704 -5.971,7.314l0,5.971c0,3.611 2.564,6.622 5.971,7.314l0,5.49c0,5.99 2.763,11.583 7.363,14.905l13.274,9.587c2.716,1.961 5.908,3.008 9.173,3.008l3.031,0c-4.358,0 -11.897,-11.133 -15.652,-17.147c-1.483,-2.376 -2.261,-5.101 -2.261,-7.902l0,-29.718c0,-1.859 1.665,-3.26 3.497,-2.939Z" style="fill:#e6b47d;fill-rule:nonzero;"/><g><path d="M77.145,131.888c-7.995,-0.027 -23.153,-18.956 -23.153,-18.956l-40.107,9.255c-8.127,1.876 -13.885,9.113 -13.885,17.455l0,27.547c0,3.298 2.673,5.971 5.971,5.971l143.305,0c3.298,0 5.971,-2.673 5.971,-5.971l0,-27.547c0,-8.341 -5.758,-15.579 -13.885,-17.455l-39.4,-9.092c0,0 -16.822,18.82 -24.817,18.793Z" style="fill:#a8a8a8;fill-rule:nonzero;"/><path d="M23.372,145.778l-18.417,-18.417c-3.069,3.241 -4.955,7.565 -4.955,12.281l0,27.547c0,3.298 2.673,5.971 5.971,5.971l20.899,0l0,-18.937c0,-3.167 -1.258,-6.205 -3.498,-8.445Z" style="fill:#8f8f8f;fill-rule:nonzero;"/><path d="M131.875,145.778l18.417,-18.417c3.07,3.241 4.956,7.564 4.956,12.281l0,27.547c0,3.298 -2.674,5.971 -5.971,5.971l-20.899,0l0,-18.937c-0.001,-3.167 1.257,-6.205 3.497,-8.445Z" style="fill:#8f8f8f;fill-rule:nonzero;"/></g><path d="M66.629,88.738c0.002,4.779 5.029,8.651 11.227,8.648c6.198,-0.004 11.221,-3.881 11.219,-8.66l-11.223,0.006l-11.223,0.006Z" style="fill:#fff;"/><g id="eye"><ellipse cx="63.457" cy="63.415" rx="7.516" ry="3.935" style="fill:#fff;"/><ellipse cx="62.84" cy="63.852" rx="3.447" ry="3.498" style="fill:url(#_Radial1);"/><ellipse cx="63.043" cy="65.67" rx="1.217" ry="1.284" style="fill:#333;"/><ellipse cx="62.638" cy="65.232" rx="0.406" ry="0.41" style="fill:#fff;"/></g><path d="M52.268,53.433c0,-1.131 3.587,-3.219 4.464,-3.515c5.205,-1.759 7.622,-1.701 11.958,1.416" style="fill:none;stroke:#785550;stroke-width:2.74px;"/><path d="M101.508,53.433c0,-1.131 -3.582,-3.237 -4.464,-3.515c-5.381,-1.693 -7.623,-1.701 -11.959,1.416" style="fill:none;stroke:#785550;stroke-width:2.74px;"/><g id="eye1" serif:id="eye"><ellipse cx="92.601" cy="63.415" rx="7.516" ry="3.935" style="fill:#fff;"/><ellipse cx="91.635" cy="63.852" rx="3.447" ry="3.498" style="fill:url(#_Radial2);"/><ellipse cx="91.432" cy="65.67" rx="1.217" ry="1.284" style="fill:#333;"/><ellipse cx="91.026" cy="65.232" rx="0.406" ry="0.41" style="fill:#fff;"/></g><path d="M75.515,61.171c0,4.065 -3.018,9.146 -1.501,13.303c0.779,2.134 2.371,2.337 4.228,2.473c0.293,0.021 2.084,0.268 2.084,0.13" style="fill:none;stroke:#e2b47d;stroke-width:2.74px;"/><path d="M74.638,0c-20.898,0 -23.884,8.957 -23.884,8.957c-11.942,0 -17.913,2.985 -17.913,14.927c0,8.024 2.985,32.841 2.985,32.841l5.971,2.985l5.565,-20.914c0,0 27.276,8.972 63.102,8.972l2.986,11.942l4.404,-1.699c0,0 4.553,-19.2 4.553,-31.142c-0.001,-17.912 -23.885,-26.869 -47.769,-26.869Z" style="fill:#8c6450;fill-rule:nonzero;"/><path d="M50.754,8.957c-11.942,0 -17.913,2.985 -17.913,14.927c0,8.024 4.376,35.596 4.376,35.596l4.58,0.23l5.565,-20.914c0,0 27.276,8.972 63.102,8.972c-41.797,-8.956 -59.71,-29.855 -59.71,-38.811Z" style="fill:#7d5541;fill-rule:nonzero;"/></g><defs><radialGradient id="_Radial1" cx="0" cy="0" r="1" gradientUnits="userSpaceOnUse" gradientTransform="matrix(3.44718,0,0,3.44718,62.8405,63.8522)"><stop offset="0" style="stop-color:#3855ab;stop-opacity:1"/><stop offset="1" style="stop-color:#4493a5;stop-opacity:1"/></radialGradient><radialGradient id="_Radial2" cx="0" cy="0" r="1" gradientUnits="userSpaceOnUse" gradientTransform="matrix(3.44718,0,0,3.44718,91.6346,63.8522)"><stop offset="0" style="stop-color:#3855ab;stop-opacity:1"/><stop offset="1" style="stop-color:#4493a5;stop-opacity:1"/></radialGradient></defs></svg>