<?xml version="1.0" encoding="UTF-8" standalone="no"?><!DOCTYPE svg PUBLIC "-//W3C//DTD SVG 1.1//EN" "http://www.w3.org/Graphics/SVG/1.1/DTD/svg11.dtd"><svg width="100%" height="100%" viewBox="0 0 1404 506" version="1.1" xmlns="http://www.w3.org/2000/svg" xmlns:xlink="http://www.w3.org/1999/xlink" xml:space="preserve" xmlns:serif="http://www.serif.com/" style="fill-rule:evenodd;clip-rule:evenodd;stroke-linejoin:round;stroke-miterlimit:1.41421;"><g id="footer_background"><clipPath id="_clip1"><rect x="114.821" y="3.117" width="1280" height="301.601"/></clipPath><g clip-path="url(#_clip1)"><path id="footer" d="M114.821,109.457c48.973,66.935 132.873,106.033 439.18,-46.587c5.099,-2.541 27.051,-13.892 33.01,-14.26c309.188,-19.078 658.378,-70.645 816.14,-9.088l0,355.773l-1288.33,0l0,-285.838Z" style="fill:#131313;"/><g id="footer_stripes"><path d="M587.011,48.525l-456.769,456.769l-105.273,-105.273l344.597,-344.597c67.269,1.041 140.977,-1.988 217.445,-6.899Z" style="fill:#f45247;"/><path d="M94.012,0c29.26,19.591 68.596,33.002 115.475,41.739l-99.397,99.398l-78.607,-78.608l62.529,-62.529Z" style="fill:#03c9f1;"/><path d="M197.603,39.389c52.502,11.003 115.306,15.629 184.539,16.183l-281.781,281.781l-100.361,-100.361l197.603,-197.603Z" style="fill:#ffc14a;"/></g></g></g></svg>