<?xml version="1.0" encoding="UTF-8" standalone="no"?><!DOCTYPE svg PUBLIC "-//W3C//DTD SVG 1.1//EN" "http://www.w3.org/Graphics/SVG/1.1/DTD/svg11.dtd"><svg width="100%" height="100%" viewBox="0 0 189 190" version="1.1" xmlns="http://www.w3.org/2000/svg" xmlns:xlink="http://www.w3.org/1999/xlink" xml:space="preserve" xmlns:serif="http://www.serif.com/" style="fill-rule:evenodd;clip-rule:evenodd;stroke-linecap:round;stroke-linejoin:round;stroke-miterlimit:1.5;"><g id="gitnotes_logo"><ellipse cx="94.491" cy="94.783" rx="94.491" ry="94.783" style="fill:#03c9f1;"/><path d="M69.103,135.106l0,-66.274l0,44.853c17.027,-25.881 76.764,1.623 71.017,-29.291" style="fill:none;stroke:#4b5f74;stroke-width:4.5px;"/><g id="notebook"><path d="M73.868,118.939l-20.893,0c-1.24,0 -2.246,1.006 -2.246,2.246l0,43.642c0,1.28 1.039,2.319 2.319,2.319l20.82,0l0,-48.207Z" style="fill:#f8ede7;"/><path d="M91.838,120.44c0,-0.398 -0.158,-0.78 -0.44,-1.061c-0.281,-0.282 -0.663,-0.44 -1.061,-0.44c-4.738,0 -19.053,0 -19.053,0l0,48.207l13.525,0l7.029,-7.03c0,0 0,-32.271 0,-39.676Z" style="fill:#f1dfd5;"/><path d="M70.677,135.671c0,-0.646 -0.525,-1.171 -1.171,-1.171l-9.448,0c-0.646,0 -1.171,0.525 -1.171,1.171c0,0.647 0.525,1.172 1.171,1.172l9.448,0c0.646,0 1.171,-0.525 1.171,-1.172Z" style="fill:#536880;"/><path d="M85.181,139.426c0,-0.646 -0.525,-1.171 -1.171,-1.171l-23.952,0c-0.646,0 -1.171,0.525 -1.171,1.171c0,0.646 0.525,1.171 1.171,1.171l23.952,0c0.646,0 1.171,-0.525 1.171,-1.171Z" style="fill:#536880;"/><path d="M85.181,143.18c0,-0.646 -0.525,-1.171 -1.171,-1.171l-23.952,0c-0.646,0 -1.171,0.525 -1.171,1.171c0,0.647 0.525,1.172 1.171,1.172l23.952,0c0.646,0 1.171,-0.525 1.171,-1.172Z" style="fill:#536880;"/><path d="M85.181,146.935c0,-0.646 -0.525,-1.171 -1.171,-1.171l-23.952,0c-0.646,0 -1.171,0.525 -1.171,1.171c0,0.646 0.525,1.171 1.171,1.171l23.952,0c0.646,0 1.171,-0.525 1.171,-1.171Z" style="fill:#536880;"/><circle cx="52.946" cy="122.546" r="0.95" style="fill:#dedede;"/><path d="M53.225,122.55c0,-0.347 -0.282,-0.629 -0.629,-0.629l-2.846,0c-0.347,0 -0.629,0.282 -0.629,0.629c0,0.348 0.282,0.63 0.629,0.63l2.846,0c0.347,0 0.629,-0.282 0.629,-0.63Z" style="fill:#ccbeac;"/><circle cx="52.946" cy="127.713" r="0.95" style="fill:#dedede;"/><path d="M53.225,127.717c0,-0.347 -0.282,-0.63 -0.629,-0.63l-2.846,0c-0.347,0 -0.629,0.283 -0.629,0.63c0,0.348 0.282,0.63 0.629,0.63l2.846,0c0.347,0 0.629,-0.282 0.629,-0.63Z" style="fill:#ccbeac;"/><circle cx="52.946" cy="132.88" r="0.95" style="fill:#dedede;"/><path d="M53.225,132.884c0,-0.348 -0.282,-0.63 -0.629,-0.63l-2.846,0c-0.347,0 -0.629,0.282 -0.629,0.63c0,0.347 0.282,0.629 0.629,0.629l2.846,0c0.347,0 0.629,-0.282 0.629,-0.629Z" style="fill:#ccbeac;"/><circle cx="52.946" cy="138.046" r="0.95" style="fill:#dedede;"/><path d="M53.225,138.05c0,-0.347 -0.282,-0.629 -0.629,-0.629l-2.846,0c-0.347,0 -0.629,0.282 -0.629,0.629c0,0.348 0.282,0.63 0.629,0.63l2.846,0c0.347,0 0.629,-0.282 0.629,-0.63Z" style="fill:#ccbeac;"/><circle cx="52.946" cy="142.896" r="0.95" style="fill:#dedede;"/><path d="M53.225,142.9c0,-0.347 -0.282,-0.629 -0.629,-0.629l-2.846,0c-0.347,0 -0.629,0.282 -0.629,0.629c0,0.348 0.282,0.63 0.629,0.63l2.846,0c0.347,0 0.629,-0.282 0.629,-0.63Z" style="fill:#ccbeac;"/><circle cx="52.946" cy="148.063" r="0.95" style="fill:#dedede;"/><path d="M53.225,148.067c0,-0.348 -0.282,-0.63 -0.629,-0.63l-2.846,0c-0.347,0 -0.629,0.282 -0.629,0.63c0,0.347 0.282,0.63 0.629,0.63l2.846,0c0.347,0 0.629,-0.283 0.629,-0.63Z" style="fill:#ccbeac;"/><circle cx="52.946" cy="153.229" r="0.95" style="fill:#dedede;"/><path d="M53.225,153.234c0,-0.348 -0.282,-0.63 -0.629,-0.63l-2.846,0c-0.347,0 -0.629,0.282 -0.629,0.63c0,0.347 0.282,0.629 0.629,0.629l2.846,0c0.347,0 0.629,-0.282 0.629,-0.629Z" style="fill:#ccbeac;"/><circle cx="52.946" cy="158.396" r="0.95" style="fill:#dedede;"/><path d="M53.225,158.4c0,-0.347 -0.282,-0.629 -0.629,-0.629l-2.846,0c-0.347,0 -0.629,0.282 -0.629,0.629c0,0.348 0.282,0.63 0.629,0.63l2.846,0c0.347,0 0.629,-0.282 0.629,-0.63Z" style="fill:#ccbeac;"/><circle cx="52.946" cy="163.563" r="0.95" style="fill:#dedede;"/><path d="M53.225,163.567c0,-0.348 -0.282,-0.63 -0.629,-0.63l-2.846,0c-0.347,0 -0.629,0.282 -0.629,0.63c0,0.347 0.282,0.629 0.629,0.629l2.846,0c0.347,0 0.629,-0.282 0.629,-0.629Z" style="fill:#ccbeac;"/><path d="M95.048,126.692l-3.21,0l0,7.138l2.408,0c0,-0.443 0.359,-0.803 0.802,-0.803l0,-6.335Z" style="fill:#ffc14a;"/><path d="M95.048,133.83l-3.21,0l0,7.138l2.408,0c0,-0.443 0.359,-0.802 0.802,-0.802l0,-6.336Z" style="fill:#f45247;"/><path d="M95.048,140.968l-3.21,0l0,7.138l2.408,0c0,-0.443 0.359,-0.802 0.802,-0.802l0,-6.336Z" style="fill:#684fa2;"/><path d="M95.048,148.106l-3.21,0l0,7.138l2.408,0c0,-0.443 0.359,-0.802 0.802,-0.802l0,-6.336Z" style="fill:#eae4dc;"/></g><g id="notebook1" serif:id="notebook"><path d="M142.226,45.192l-16.991,0c-1.008,0 -1.826,0.818 -1.826,1.826l0,35.49c0,1.041 0.845,1.886 1.885,1.886l16.932,0l0,-39.202Z" style="fill:#f8ede7;"/><path d="M156.839,46.694c0,-0.399 -0.158,-0.781 -0.44,-1.062c-0.281,-0.282 -0.663,-0.44 -1.062,-0.44c-4.105,0 -15.213,0 -15.213,0l0,39.202l10.999,0l5.716,-5.717c0,0 0,-25.471 0,-31.983Z" style="fill:#f1dfd5;"/><path d="M139.631,58.799c0,-0.526 -0.427,-0.952 -0.953,-0.952l-7.682,0c-0.526,0 -0.953,0.426 -0.953,0.952c0,0.526 0.427,0.952 0.953,0.952l7.682,0c0.526,0 0.953,-0.426 0.953,-0.952Z" style="fill:#536880;"/><path d="M151.425,61.852c0,-0.525 -0.427,-0.952 -0.952,-0.952l-19.477,0c-0.526,0 -0.953,0.427 -0.953,0.952c0,0.526 0.427,0.953 0.953,0.953l19.477,0c0.525,0 0.952,-0.427 0.952,-0.953Z" style="fill:#536880;"/><path d="M151.425,64.905c0,-0.525 -0.427,-0.952 -0.952,-0.952l-19.477,0c-0.526,0 -0.953,0.427 -0.953,0.952c0,0.526 0.427,0.953 0.953,0.953l19.477,0c0.525,0 0.952,-0.427 0.952,-0.953Z" style="fill:#536880;"/><path d="M151.425,67.959c0,-0.526 -0.427,-0.953 -0.952,-0.953l-19.477,0c-0.526,0 -0.953,0.427 -0.953,0.953c0,0.525 0.427,0.952 0.953,0.952l19.477,0c0.525,0 0.952,-0.427 0.952,-0.952Z" style="fill:#536880;"/><circle cx="125.212" cy="48.126" r="0.773" style="fill:#dedede;"/><path d="M125.439,48.129c0,-0.283 -0.229,-0.512 -0.512,-0.512l-2.314,0c-0.283,0 -0.512,0.229 -0.512,0.512c0,0.283 0.229,0.512 0.512,0.512l2.314,0c0.283,0 0.512,-0.229 0.512,-0.512Z" style="fill:#ccbeac;"/><circle cx="125.212" cy="52.327" r="0.773" style="fill:#dedede;"/><path d="M125.439,52.331c0,-0.283 -0.229,-0.512 -0.512,-0.512l-2.314,0c-0.283,0 -0.512,0.229 -0.512,0.512c0,0.282 0.229,0.512 0.512,0.512l2.314,0c0.283,0 0.512,-0.23 0.512,-0.512Z" style="fill:#ccbeac;"/><circle cx="125.212" cy="56.529" r="0.773" style="fill:#dedede;"/><path d="M125.439,56.532c0,-0.283 -0.229,-0.512 -0.512,-0.512l-2.314,0c-0.283,0 -0.512,0.229 -0.512,0.512c0,0.283 0.229,0.512 0.512,0.512l2.314,0c0.283,0 0.512,-0.229 0.512,-0.512Z" style="fill:#ccbeac;"/><circle cx="125.212" cy="60.73" r="0.773" style="fill:#dedede;"/><path d="M125.439,60.734c0,-0.283 -0.229,-0.512 -0.512,-0.512l-2.314,0c-0.283,0 -0.512,0.229 -0.512,0.512c0,0.282 0.229,0.512 0.512,0.512l2.314,0c0.283,0 0.512,-0.23 0.512,-0.512Z" style="fill:#ccbeac;"/><circle cx="125.212" cy="64.674" r="0.773" style="fill:#dedede;"/><path d="M125.439,64.678c0,-0.283 -0.229,-0.512 -0.512,-0.512l-2.314,0c-0.283,0 -0.512,0.229 -0.512,0.512c0,0.282 0.229,0.512 0.512,0.512l2.314,0c0.283,0 0.512,-0.23 0.512,-0.512Z" style="fill:#ccbeac;"/><circle cx="125.212" cy="68.876" r="0.773" style="fill:#dedede;"/><path d="M125.439,68.879c0,-0.282 -0.229,-0.512 -0.512,-0.512l-2.314,0c-0.283,0 -0.512,0.23 -0.512,0.512c0,0.283 0.229,0.512 0.512,0.512l2.314,0c0.283,0 0.512,-0.229 0.512,-0.512Z" style="fill:#ccbeac;"/><circle cx="125.212" cy="73.077" r="0.773" style="fill:#dedede;"/><path d="M125.439,73.081c0,-0.283 -0.229,-0.512 -0.512,-0.512l-2.314,0c-0.283,0 -0.512,0.229 -0.512,0.512c0,0.282 0.229,0.512 0.512,0.512l2.314,0c0.283,0 0.512,-0.23 0.512,-0.512Z" style="fill:#ccbeac;"/><circle cx="125.212" cy="77.279" r="0.773" style="fill:#dedede;"/><path d="M125.439,77.282c0,-0.282 -0.229,-0.512 -0.512,-0.512l-2.314,0c-0.283,0 -0.512,0.23 -0.512,0.512c0,0.283 0.229,0.512 0.512,0.512l2.314,0c0.283,0 0.512,-0.229 0.512,-0.512Z" style="fill:#ccbeac;"/><circle cx="125.212" cy="81.48" r="0.773" style="fill:#dedede;"/><path d="M125.439,81.484c0,-0.283 -0.229,-0.512 -0.512,-0.512l-2.314,0c-0.283,0 -0.512,0.229 -0.512,0.512c0,0.282 0.229,0.512 0.512,0.512l2.314,0c0.283,0 0.512,-0.23 0.512,-0.512Z" style="fill:#ccbeac;"/><path d="M159.449,51.497l-2.61,0l0,5.805l1.958,0c0,-0.361 0.292,-0.653 0.652,-0.653l0,-5.152Z" style="fill:#ffc14a;"/><path d="M159.449,57.302l-2.61,0l0,5.804l1.958,0c0,-0.36 0.292,-0.652 0.652,-0.652l0,-5.152Z" style="fill:#f45247;"/><path d="M159.449,63.106l-2.61,0l0,5.805l1.958,0c0,-0.36 0.292,-0.653 0.652,-0.653l0,-5.152Z" style="fill:#684fa2;"/><path d="M159.449,68.911l-2.61,0l0,5.805l1.958,0c0,-0.36 0.292,-0.653 0.652,-0.653l0,-5.152Z" style="fill:#eae4dc;"/></g><g id="notebook2" serif:id="notebook"><path d="M73.597,27.333l-20.665,0c-1.226,0 -2.221,0.995 -2.221,2.221l0,43.163c0,1.266 1.028,2.294 2.294,2.294l20.592,0l0,-47.678Z" style="fill:#f8ede7;"/><path d="M91.37,28.834c0,-0.398 -0.159,-0.78 -0.44,-1.062c-0.282,-0.281 -0.664,-0.439 -1.062,-0.439c-4.702,0 -18.828,0 -18.828,0l0,47.678l13.377,0l6.953,-6.953c0,0 0,-31.869 0,-39.224Z" style="fill:#f1dfd5;"/><path d="M70.441,43.882c0,-0.639 -0.519,-1.158 -1.159,-1.158l-9.343,0c-0.64,0 -1.159,0.519 -1.159,1.158c0,0.639 0.519,1.158 1.159,1.158l9.343,0c0.64,0 1.159,-0.519 1.159,-1.158Z" style="fill:#536880;"/><path d="M84.785,47.595c0,-0.639 -0.519,-1.158 -1.158,-1.158l-23.688,0c-0.64,0 -1.159,0.519 -1.159,1.158c0,0.639 0.519,1.158 1.159,1.158l23.688,0c0.639,0 1.158,-0.519 1.158,-1.158Z" style="fill:#536880;"/><path d="M84.785,51.308c0,-0.639 -0.519,-1.158 -1.158,-1.158l-23.688,0c-0.64,0 -1.159,0.519 -1.159,1.158c0,0.64 0.519,1.159 1.159,1.159l23.688,0c0.639,0 1.158,-0.519 1.158,-1.159Z" style="fill:#536880;"/><path d="M84.785,55.022c0,-0.64 -0.519,-1.159 -1.158,-1.159l-23.688,0c-0.64,0 -1.159,0.519 -1.159,1.159c0,0.639 0.519,1.158 1.159,1.158l23.688,0c0.639,0 1.158,-0.519 1.158,-1.158Z" style="fill:#536880;"/><circle cx="52.904" cy="30.901" r="0.94" style="fill:#dedede;"/><path d="M53.18,30.905c0,-0.344 -0.279,-0.623 -0.622,-0.623l-2.815,0c-0.343,0 -0.622,0.279 -0.622,0.623c0,0.343 0.279,0.622 0.622,0.622l2.815,0c0.343,0 0.622,-0.279 0.622,-0.622Z" style="fill:#ccbeac;"/><circle cx="52.904" cy="36.011" r="0.94" style="fill:#dedede;"/><path d="M53.18,36.015c0,-0.344 -0.279,-0.623 -0.622,-0.623l-2.815,0c-0.343,0 -0.622,0.279 -0.622,0.623c0,0.343 0.279,0.622 0.622,0.622l2.815,0c0.343,0 0.622,-0.279 0.622,-0.622Z" style="fill:#ccbeac;"/><circle cx="52.904" cy="41.121" r="0.94" style="fill:#dedede;"/><path d="M53.18,41.125c0,-0.344 -0.279,-0.623 -0.622,-0.623l-2.815,0c-0.343,0 -0.622,0.279 -0.622,0.623c0,0.343 0.279,0.622 0.622,0.622l2.815,0c0.343,0 0.622,-0.279 0.622,-0.622Z" style="fill:#ccbeac;"/><circle cx="52.904" cy="46.231" r="0.94" style="fill:#dedede;"/><path d="M53.18,46.235c0,-0.344 -0.279,-0.623 -0.622,-0.623l-2.815,0c-0.343,0 -0.622,0.279 -0.622,0.623c0,0.343 0.279,0.622 0.622,0.622l2.815,0c0.343,0 0.622,-0.279 0.622,-0.622Z" style="fill:#ccbeac;"/><circle cx="52.904" cy="51.027" r="0.94" style="fill:#dedede;"/><path d="M53.18,51.031c0,-0.343 -0.279,-0.622 -0.622,-0.622l-2.815,0c-0.343,0 -0.622,0.279 -0.622,0.622c0,0.344 0.279,0.623 0.622,0.623l2.815,0c0.343,0 0.622,-0.279 0.622,-0.623Z" style="fill:#ccbeac;"/><circle cx="52.904" cy="56.137" r="0.94" style="fill:#dedede;"/><path d="M53.18,56.141c0,-0.343 -0.279,-0.622 -0.622,-0.622l-2.815,0c-0.343,0 -0.622,0.279 -0.622,0.622c0,0.344 0.279,0.623 0.622,0.623l2.815,0c0.343,0 0.622,-0.279 0.622,-0.623Z" style="fill:#ccbeac;"/><circle cx="52.904" cy="61.247" r="0.94" style="fill:#dedede;"/><path d="M53.18,61.251c0,-0.343 -0.279,-0.622 -0.622,-0.622l-2.815,0c-0.343,0 -0.622,0.279 -0.622,0.622c0,0.344 0.279,0.623 0.622,0.623l2.815,0c0.343,0 0.622,-0.279 0.622,-0.623Z" style="fill:#ccbeac;"/><circle cx="52.904" cy="66.357" r="0.94" style="fill:#dedede;"/><path d="M53.18,66.361c0,-0.343 -0.279,-0.622 -0.622,-0.622l-2.815,0c-0.343,0 -0.622,0.279 -0.622,0.622c0,0.344 0.279,0.623 0.622,0.623l2.815,0c0.343,0 0.622,-0.279 0.622,-0.623Z" style="fill:#ccbeac;"/><circle cx="52.904" cy="71.467" r="0.94" style="fill:#dedede;"/><path d="M53.18,71.471c0,-0.344 -0.279,-0.623 -0.622,-0.623l-2.815,0c-0.343,0 -0.622,0.279 -0.622,0.623c0,0.344 0.279,0.623 0.622,0.623l2.815,0c0.343,0 0.622,-0.279 0.622,-0.623Z" style="fill:#ccbeac;"/><path d="M94.544,35.001l-3.174,0l0,7.06l2.381,0c0,-0.438 0.355,-0.794 0.793,-0.794l0,-6.266Z" style="fill:#ffc14a;"/><path d="M94.544,42.061l-3.174,0l0,7.059l2.381,0c0,-0.438 0.355,-0.793 0.793,-0.793l0,-6.266Z" style="fill:#f45247;"/><path d="M94.544,49.12l-3.174,0l0,7.06l2.381,0c0,-0.438 0.355,-0.794 0.793,-0.794l0,-6.266Z" style="fill:#684fa2;"/><path d="M94.544,56.18l-3.174,0l0,7.06l2.381,0c0,-0.438 0.355,-0.794 0.793,-0.794l0,-6.266Z" style="fill:#eae4dc;"/></g></g></svg>