<?xml version="1.0" encoding="UTF-8" standalone="no"?><!DOCTYPE svg PUBLIC "-//W3C//DTD SVG 1.1//EN" "http://www.w3.org/Graphics/SVG/1.1/DTD/svg11.dtd"><svg width="100%" height="100%" viewBox="0 0 219 49" version="1.1" xmlns="http://www.w3.org/2000/svg" xmlns:xlink="http://www.w3.org/1999/xlink" xml:space="preserve" xmlns:serif="http://www.serif.com/" style="fill-rule:evenodd;clip-rule:evenodd;stroke-linejoin:round;stroke-miterlimit:1.41421;"><g><path d="M215.564,17.246c-1.272,0.276 -2.37,0.986 -2.884,2.21c-0.31,0.743 -0.743,2.662 -1.931,2.166c-0.569,-0.235 -0.56,-1.05 -0.494,-1.558c0.142,-1.044 0.611,-1.997 0.933,-2.99c0.331,-1.028 0.616,-2.063 0.821,-3.128c0.686,-3.525 0.496,-7.585 -1.997,-10.403c-0.421,-0.481 -1.483,-1.594 -2.184,-1.618c-0.433,-0.012 -0.006,0.499 0.115,0.67c0.243,0.352 0.448,0.734 0.604,1.134c1.844,4.704 -2.701,8.286 -5.687,11.074c-1.432,1.339 -2.575,2.758 -3.603,4.416c-0.103,0.159 -0.328,0.694 -0.62,0.583c-0.346,-0.132 -0.382,-0.923 -0.49,-1.218c-0.205,-0.565 -0.521,-1.182 -0.927,-1.624c-0.785,-0.86 -1.882,-1.441 -3.07,-1.363c-0.046,0.003 -0.175,0.025 -0.334,0.061c-0.25,0.054 -0.918,0.141 -0.737,0.544c0.093,0.208 0.367,0.189 0.562,0.247c2.509,0.77 2.451,3.398 2.045,5.51c-0.733,3.843 -2.767,7.477 -1.323,11.429c1.702,4.658 7.032,7.567 11.868,6.767c1.321,-0.217 2.842,-0.644 4.027,-1.282c1.261,-0.679 2.641,-1.609 3.625,-2.655c1.266,-1.345 2.072,-3.068 2.309,-4.894c0.28,-2.111 -0.394,-4.102 -1.007,-6.096c-0.74,-2.406 -1.591,-6.334 1.483,-7.51c0.15,-0.06 0.451,-0.105 0.556,-0.265c0.391,-0.583 -1.486,-0.243 -1.66,-0.207Z" style="fill:#ed6c30;fill-rule:nonzero;"/><path d="M206.097,32.257c0.637,0.536 1.531,0.274 2.132,-0.183c0.322,-0.244 0.599,-0.556 0.779,-0.92c0.075,-0.157 0.162,-0.355 0.162,-0.533c0,-0.237 -0.141,-0.472 -0.081,-0.715c0.505,-0.1 1.131,1.353 1.194,1.69c0.506,2.656 -1.997,4.845 -4.412,5.269c-4.075,0.713 -6.418,-2.857 -5.949,-6.027c0.292,-1.973 1.615,-3.33 2.962,-4.683c1.116,-1.122 2.151,-2.084 2.512,-3.543c0.063,-0.259 0.048,-0.656 -0.027,-0.911c-0.063,-0.22 -0.184,-0.421 -0.19,-0.659c-0.018,-0.499 0.466,0.153 0.578,0.28c1.341,1.513 1.723,3.747 1.365,5.702c-0.231,1.263 -1.134,2.166 -1.449,3.375c-0.184,0.689 -0.166,1.359 0.424,1.858Z" style="fill:#fcc21b;fill-rule:nonzero;"/><g><g transform="matrix(1,0,0,1,0.33918,37.2854)"><text x="0px" y="0px" style="font-family:'Avenir-Heavy', 'Avenir', sans-serif;font-weight:900;font-size:37.62px;fill:#fff;">s<tspan x="17.456px 38.41px 48.944px 59.515px 70.048px 88.934px 109.888px 143.37px " y="0px 0px 0px 0px 0px 0px 0px 0px ">killcamp</tspan></text><text x="167.823px" y="0px" style="font-family:'Avenir-Black', 'Avenir', sans-serif;font-weight:800;font-size:37.62px;fill:#fff;">.<tspan x="179.711px " y="0px ">i</tspan></text></g></g></g></svg>