<?xml version="1.0" encoding="UTF-8" standalone="no"?>
<!DOCTYPE svg PUBLIC "-//W3C//DTD SVG 1.1//EN" "http://www.w3.org/Graphics/SVG/1.1/DTD/svg11.dtd">
<svg version="1.1" xmlns="http://www.w3.org/2000/svg" xmlns:xlink="http://www.w3.org/1999/xlink" preserveAspectRatio="xMidYMid meet" viewBox="0 0 98.667 48" width="98.67" height="48"><defs><path d="M14.38 43.08C15.08 43.08 15.78 42.89 16.41 42.49C18.18 41.38 18.7 39.06 17.57 37.31C16.99 36.41 14.07 31.9 8.82 23.77C14.07 15.64 16.99 11.13 17.57 10.22C18.7 8.48 18.18 6.16 16.42 5.04C14.65 3.93 12.31 4.44 11.18 6.19C10.17 7.74 2.13 20.19 1.12 21.75C0.32 22.98 0.32 24.56 1.12 25.79C1.79 26.82 5.14 32.01 11.18 41.35C12.48 42.51 13.54 43.08 14.38 43.08Z" id="ix5J2Wkc4"></path><path d="M83.68 43.08C84.93 43.08 86.16 42.47 86.88 41.35C87.89 39.8 95.93 27.34 96.94 25.79C97.73 24.56 97.73 22.98 96.94 21.75C95.93 20.19 87.89 7.74 86.88 6.19C85.75 4.44 83.41 3.93 81.64 5.05C79.88 6.16 79.36 8.48 80.49 10.22C81.07 11.13 83.99 15.64 89.24 23.77C83.99 31.9 81.07 36.41 80.49 37.32C79.36 39.06 79.88 41.38 81.64 42.49C82.28 42.89 82.98 43.08 83.68 43.08Z" id="bm4IXSc4F"></path><path d="M54.59 47.93C55.86 47.93 57.08 47.25 57.67 46.07C59.73 41.93 76.23 8.83 78.29 4.69C79.11 3.06 78.39 1.1 76.7 0.32C75 -0.46 72.97 0.23 72.16 1.86C70.09 6 53.59 39.1 51.53 43.24C50.72 44.87 51.43 46.83 53.12 47.61C53.6 47.83 54.1 47.93 54.59 47.93Z" id="f17z6ofdJm"></path><path d="M44.38 21.91C44.01 22.75 43.5 24.91 42.1 24.35C41.43 24.09 41.44 23.17 41.52 22.6C41.69 21.42 42.24 20.35 42.62 19.23C43.01 18.07 43.35 16.91 43.59 15.71C44.39 11.74 44.17 7.17 41.24 3.99C40.74 3.45 39.49 2.2 38.67 2.17C38.16 2.16 38.66 2.73 38.8 2.93C39.09 3.32 39.33 3.75 39.51 4.2C41.68 9.5 36.33 13.53 32.82 16.67C31.13 18.18 29.79 19.78 28.58 21.64C28.45 21.82 28.19 22.43 27.85 22.3C27.44 22.15 27.4 21.26 27.27 20.93C27.03 20.29 26.66 19.6 26.18 19.1C25.25 18.13 23.96 17.48 22.56 17.57C22.51 17.57 22.36 17.59 22.17 17.63C21.88 17.7 21.09 17.79 21.3 18.25C21.41 18.48 21.74 18.46 21.97 18.53C24.92 19.39 24.85 22.35 24.37 24.73C23.51 29.06 21.12 33.15 22.81 37.6C24.82 42.84 31.09 46.12 36.79 45.22C38.34 44.97 40.13 44.49 41.53 43.78C43.01 43.01 44.63 41.96 45.79 40.79C47.28 39.27 48.23 37.33 48.51 35.28C48.84 32.9 48.05 30.66 47.33 28.41C46.45 25.7 45.45 21.28 49.07 19.95C49.25 19.89 49.6 19.84 49.73 19.66C50.19 19 47.98 19.38 47.77 19.42C46.27 19.73 44.98 20.53 44.38 21.91Z" id="a6PkYoUHCJ"></path><path d="M39.5 37.81C39.88 37.54 40.2 37.19 40.41 36.78C40.5 36.6 40.61 36.38 40.61 36.18C40.61 35.91 40.44 35.64 40.51 35.37C41.1 35.26 41.84 36.89 41.92 37.27C42.51 40.26 39.56 42.73 36.72 43.21C31.92 44.01 29.17 39.99 29.72 36.42C30.06 34.2 31.62 32.67 33.21 31.15C34.52 29.88 35.74 28.8 36.16 27.16C36.24 26.87 36.22 26.42 36.13 26.13C36.06 25.88 35.91 25.66 35.91 25.39C35.89 24.83 36.46 25.56 36.59 25.7C38.17 27.41 38.62 29.92 38.19 32.13C37.92 33.55 36.86 34.56 36.49 35.93C36.27 36.7 36.29 37.46 36.99 38.02C37.74 38.62 38.79 38.33 39.5 37.81Z" id="d2dGSuwnye"></path></defs><g><g><g><use xlink:href="#ix5J2Wkc4" opacity="1" fill="#ffffff" fill-opacity="1"></use><g><use xlink:href="#ix5J2Wkc4" opacity="1" fill-opacity="0" stroke="#000000" stroke-width="1" stroke-opacity="0"></use></g></g><g><use xlink:href="#bm4IXSc4F" opacity="1" fill="#ffffff" fill-opacity="1"></use><g><use xlink:href="#bm4IXSc4F" opacity="1" fill-opacity="0" stroke="#000000" stroke-width="1" stroke-opacity="0"></use></g></g><g><use xlink:href="#f17z6ofdJm" opacity="1" fill="#ffffff" fill-opacity="1"></use><g><use xlink:href="#f17z6ofdJm" opacity="1" fill-opacity="0" stroke="#000000" stroke-width="1" stroke-opacity="0"></use></g></g><g><use xlink:href="#a6PkYoUHCJ" opacity="1" fill="#ed6c30" fill-opacity="1"></use><g><use xlink:href="#a6PkYoUHCJ" opacity="1" fill-opacity="0" stroke="#000000" stroke-width="1" stroke-opacity="0"></use></g></g><g><use xlink:href="#d2dGSuwnye" opacity="1" fill="#fcc21b" fill-opacity="1"></use><g><use xlink:href="#d2dGSuwnye" opacity="1" fill-opacity="0" stroke="#000000" stroke-width="1" stroke-opacity="0"></use></g></g></g></g></svg>