<?xml version="1.0" encoding="UTF-8" standalone="no"?><!DOCTYPE svg PUBLIC "-//W3C//DTD SVG 1.1//EN" "http://www.w3.org/Graphics/SVG/1.1/DTD/svg11.dtd"><svg width="100%" height="100%" viewBox="0 0 282 48" version="1.1" xmlns="http://www.w3.org/2000/svg" xmlns:xlink="http://www.w3.org/1999/xlink" xml:space="preserve" xmlns:serif="http://www.serif.com/" style="fill-rule:evenodd;clip-rule:evenodd;"><g><g><path id="ix5J2Wkc4" d="M196.358,43.08c0.7,0 1.4,-0.19 2.03,-0.59c1.77,-1.11 2.29,-3.43 1.16,-5.18c-0.58,-0.9 -3.5,-5.41 -8.75,-13.54c5.25,-8.13 8.17,-12.64 8.75,-13.55c1.13,-1.74 0.61,-4.06 -1.15,-5.18c-1.77,-1.11 -4.11,-0.6 -5.24,1.15c-1.01,1.55 -9.05,14 -10.06,15.56c-0.8,1.23 -0.8,2.81 0,4.04c0.67,1.03 4.02,6.22 10.06,15.56c1.3,1.16 2.36,1.73 3.2,1.73Z" style="fill:#fff;fill-rule:nonzero;"/><path id="ix5J2Wkc41" serif:id="ix5J2Wkc4" d="M196.358,43.08c0.7,0 1.4,-0.19 2.03,-0.59c1.77,-1.11 2.29,-3.43 1.16,-5.18c-0.58,-0.9 -3.5,-5.41 -8.75,-13.54c5.25,-8.13 8.17,-12.64 8.75,-13.55c1.13,-1.74 0.61,-4.06 -1.15,-5.18c-1.77,-1.11 -4.11,-0.6 -5.24,1.15c-1.01,1.55 -9.05,14 -10.06,15.56c-0.8,1.23 -0.8,2.81 0,4.04c0.67,1.03 4.02,6.22 10.06,15.56c1.3,1.16 2.36,1.73 3.2,1.73Z" style="fill:#fff;fill-opacity:0;fill-rule:nonzero;stroke:#000;stroke-opacity:0;stroke-width:1px;"/></g><g><path id="bm4IXSc4F" d="M265.658,43.08c1.25,0 2.48,-0.61 3.2,-1.73c1.01,-1.55 9.05,-14.01 10.06,-15.56c0.79,-1.23 0.79,-2.81 0,-4.04c-1.01,-1.56 -9.05,-14.01 -10.06,-15.56c-1.13,-1.75 -3.47,-2.26 -5.24,-1.14c-1.76,1.11 -2.28,3.43 -1.15,5.17c0.58,0.91 3.5,5.42 8.75,13.55c-5.25,8.13 -8.17,12.64 -8.75,13.55c-1.13,1.74 -0.61,4.06 1.15,5.17c0.64,0.4 1.34,0.59 2.04,0.59Z" style="fill:#fff;fill-rule:nonzero;"/><path id="bm4IXSc4F1" serif:id="bm4IXSc4F" d="M265.658,43.08c1.25,0 2.48,-0.61 3.2,-1.73c1.01,-1.55 9.05,-14.01 10.06,-15.56c0.79,-1.23 0.79,-2.81 0,-4.04c-1.01,-1.56 -9.05,-14.01 -10.06,-15.56c-1.13,-1.75 -3.47,-2.26 -5.24,-1.14c-1.76,1.11 -2.28,3.43 -1.15,5.17c0.58,0.91 3.5,5.42 8.75,13.55c-5.25,8.13 -8.17,12.64 -8.75,13.55c-1.13,1.74 -0.61,4.06 1.15,5.17c0.64,0.4 1.34,0.59 2.04,0.59Z" style="fill:#fff;fill-opacity:0;fill-rule:nonzero;stroke:#000;stroke-opacity:0;stroke-width:1px;"/></g><g><path id="f17z6ofdJm" d="M236.568,47.93c1.27,0 2.49,-0.68 3.08,-1.86c2.06,-4.14 18.56,-37.24 20.62,-41.38c0.82,-1.63 0.1,-3.59 -1.59,-4.37c-1.7,-0.78 -3.73,-0.09 -4.54,1.54c-2.07,4.14 -18.57,37.24 -20.63,41.38c-0.81,1.63 -0.1,3.59 1.59,4.37c0.48,0.22 0.98,0.32 1.47,0.32Z" style="fill:#fff;fill-rule:nonzero;"/><path id="f17z6ofdJm1" serif:id="f17z6ofdJm" d="M236.568,47.93c1.27,0 2.49,-0.68 3.08,-1.86c2.06,-4.14 18.56,-37.24 20.62,-41.38c0.82,-1.63 0.1,-3.59 -1.59,-4.37c-1.7,-0.78 -3.73,-0.09 -4.54,1.54c-2.07,4.14 -18.57,37.24 -20.63,41.38c-0.81,1.63 -0.1,3.59 1.59,4.37c0.48,0.22 0.98,0.32 1.47,0.32Z" style="fill:#fff;fill-opacity:0;fill-rule:nonzero;stroke:#000;stroke-opacity:0;stroke-width:1px;"/></g><g><text x="0.17px" y="36.464px" style="font-family: 'Nunito Sans';font-weight:700;font-size:43.755px;fill:#fff;">s<tspan x="20.399px 42.755px 53.349px 63.943px 74.537px 94.891px 117.413px 153.825px " y="36.464px 36.464px 36.464px 36.464px 36.464px 36.464px 36.464px 36.464px ">killcamp</tspan></text></g><g><path id="a6PkYoUHCJ" d="M226.785,21.91c-0.37,0.84 -0.88,3 -2.28,2.44c-0.67,-0.26 -0.66,-1.18 -0.58,-1.75c0.17,-1.18 0.72,-2.25 1.1,-3.37c0.39,-1.16 0.73,-2.32 0.97,-3.52c0.8,-3.97 0.58,-8.54 -2.35,-11.72c-0.5,-0.54 -1.75,-1.79 -2.57,-1.82c-0.51,-0.01 -0.01,0.56 0.13,0.76c0.29,0.39 0.53,0.82 0.71,1.27c2.17,5.3 -3.18,9.33 -6.69,12.47c-1.69,1.51 -3.03,3.11 -4.24,4.97c-0.13,0.18 -0.39,0.79 -0.73,0.66c-0.41,-0.15 -0.45,-1.04 -0.58,-1.37c-0.24,-0.64 -0.61,-1.33 -1.09,-1.83c-0.93,-0.97 -2.22,-1.62 -3.62,-1.53c-0.05,0 -0.2,0.02 -0.39,0.06c-0.29,0.07 -1.08,0.16 -0.87,0.62c0.11,0.23 0.44,0.21 0.67,0.28c2.95,0.86 2.88,3.82 2.4,6.2c-0.86,4.33 -3.25,8.42 -1.56,12.87c2.01,5.24 8.28,8.52 13.98,7.62c1.55,-0.25 3.34,-0.73 4.74,-1.44c1.48,-0.77 3.1,-1.82 4.26,-2.99c1.49,-1.52 2.44,-3.46 2.72,-5.51c0.33,-2.38 -0.46,-4.62 -1.18,-6.87c-0.88,-2.71 -1.88,-7.13 1.74,-8.46c0.18,-0.06 0.53,-0.11 0.66,-0.29c0.46,-0.66 -1.75,-0.28 -1.96,-0.24c-1.5,0.31 -2.79,1.11 -3.39,2.49Z" style="fill:#ed6c30;fill-rule:nonzero;"/><path id="a6PkYoUHCJ1" serif:id="a6PkYoUHCJ" d="M226.785,21.91c-0.37,0.84 -0.88,3 -2.28,2.44c-0.67,-0.26 -0.66,-1.18 -0.58,-1.75c0.17,-1.18 0.72,-2.25 1.1,-3.37c0.39,-1.16 0.73,-2.32 0.97,-3.52c0.8,-3.97 0.58,-8.54 -2.35,-11.72c-0.5,-0.54 -1.75,-1.79 -2.57,-1.82c-0.51,-0.01 -0.01,0.56 0.13,0.76c0.29,0.39 0.53,0.82 0.71,1.27c2.17,5.3 -3.18,9.33 -6.69,12.47c-1.69,1.51 -3.03,3.11 -4.24,4.97c-0.13,0.18 -0.39,0.79 -0.73,0.66c-0.41,-0.15 -0.45,-1.04 -0.58,-1.37c-0.24,-0.64 -0.61,-1.33 -1.09,-1.83c-0.93,-0.97 -2.22,-1.62 -3.62,-1.53c-0.05,0 -0.2,0.02 -0.39,0.06c-0.29,0.07 -1.08,0.16 -0.87,0.62c0.11,0.23 0.44,0.21 0.67,0.28c2.95,0.86 2.88,3.82 2.4,6.2c-0.86,4.33 -3.25,8.42 -1.56,12.87c2.01,5.24 8.28,8.52 13.98,7.62c1.55,-0.25 3.34,-0.73 4.74,-1.44c1.48,-0.77 3.1,-1.82 4.26,-2.99c1.49,-1.52 2.44,-3.46 2.72,-5.51c0.33,-2.38 -0.46,-4.62 -1.18,-6.87c-0.88,-2.71 -1.88,-7.13 1.74,-8.46c0.18,-0.06 0.53,-0.11 0.66,-0.29c0.46,-0.66 -1.75,-0.28 -1.96,-0.24c-1.5,0.31 -2.79,1.11 -3.39,2.49Z" style="fill-opacity:0;fill-rule:nonzero;stroke:#000;stroke-opacity:0;stroke-width:1px;"/></g><g><path id="d2dGSuwnye" d="M221.164,35.83c0.38,-0.27 0.7,-0.62 0.91,-1.03c0.09,-0.18 0.2,-0.4 0.2,-0.6c0,-0.27 -0.17,-0.54 -0.1,-0.81c0.59,-0.11 1.33,1.52 1.41,1.9c0.59,2.99 -2.36,5.46 -5.2,5.94c-4.8,0.8 -7.55,-3.22 -7,-6.79c0.34,-2.22 1.9,-3.75 3.49,-5.27c1.31,-1.27 2.53,-2.35 2.95,-3.99c0.08,-0.29 0.06,-0.74 -0.03,-1.03c-0.07,-0.25 -0.22,-0.47 -0.22,-0.74c-0.02,-0.56 0.55,0.17 0.68,0.31c1.58,1.71 2.03,4.22 1.6,6.43c-0.27,1.42 -1.33,2.43 -1.7,3.8c-0.22,0.77 -0.2,1.53 0.5,2.09c0.75,0.6 1.8,0.31 2.51,-0.21Z" style="fill:#fcc21b;fill-rule:nonzero;"/><path id="d2dGSuwnye1" serif:id="d2dGSuwnye" d="M221.164,35.83c0.38,-0.27 0.7,-0.62 0.91,-1.03c0.09,-0.18 0.2,-0.4 0.2,-0.6c0,-0.27 -0.17,-0.54 -0.1,-0.81c0.59,-0.11 1.33,1.52 1.41,1.9c0.59,2.99 -2.36,5.46 -5.2,5.94c-4.8,0.8 -7.55,-3.22 -7,-6.79c0.34,-2.22 1.9,-3.75 3.49,-5.27c1.31,-1.27 2.53,-2.35 2.95,-3.99c0.08,-0.29 0.06,-0.74 -0.03,-1.03c-0.07,-0.25 -0.22,-0.47 -0.22,-0.74c-0.02,-0.56 0.55,0.17 0.68,0.31c1.58,1.71 2.03,4.22 1.6,6.43c-0.27,1.42 -1.33,2.43 -1.7,3.8c-0.22,0.77 -0.2,1.53 0.5,2.09c0.75,0.6 1.8,0.31 2.51,-0.21Z" style="fill-opacity:0;fill-rule:nonzero;stroke:#000;stroke-opacity:0;stroke-width:1px;"/></g></g></svg>