<?xml version="1.0" encoding="UTF-8" standalone="no"?><!DOCTYPE svg PUBLIC "-//W3C//DTD SVG 1.1//EN" "http://www.w3.org/Graphics/SVG/1.1/DTD/svg11.dtd"><svg width="100%" height="100%" viewBox="0 0 156 172" version="1.1" xmlns="http://www.w3.org/2000/svg" xmlns:xlink="http://www.w3.org/1999/xlink" xml:space="preserve" xmlns:serif="http://www.serif.com/" style="fill-rule:evenodd;clip-rule:evenodd;stroke-linecap:square;stroke-miterlimit:1.5;"><g id="mentor"><path d="M77.623,106.7l-63.738,14.602c-8.127,1.862 -13.885,9.047 -13.885,17.328l0,27.347c0,3.274 2.673,5.928 5.971,5.928l143.305,0c3.298,0 5.971,-2.654 5.971,-5.928l0,-27.347c0,-8.281 -5.758,-15.466 -13.885,-17.328l-63.739,-14.602Z" style="fill:#ffc855;fill-rule:nonzero;"/><rect x="53.74" y="94.844" width="47.768" height="32.603" style="fill:#e6b47d;"/><path d="M53.74,94.844l0,24.196c28.252,3.67 47.768,-21.231 47.768,-21.231l0,-2.965l-47.768,0Z" style="fill:#d2a073;fill-rule:nonzero;"/><path d="M113.45,53.499l0,-17.932l-71.653,0l0,43.832c0,5.946 2.763,11.499 7.363,14.797l13.274,9.517c2.716,1.947 5.908,2.987 9.173,2.987l12.034,0c3.264,0 6.456,-1.039 9.171,-2.987l13.275,-9.517c4.6,-3.298 7.363,-8.851 7.363,-14.797l0,-5.451c3.406,-0.686 5.971,-3.676 5.971,-7.26l0,-5.928c0,-3.585 -2.564,-6.575 -5.971,-7.261Z" style="fill:#f0c891;fill-rule:nonzero;"/><path d="M60.222,49.411c9.925,1.722 27.66,3.939 53.228,3.939l0,-17.783l-71.653,0l0,17.932c-3.407,0.686 -5.971,3.676 -5.971,7.261l0,5.927c0,3.585 2.564,6.575 5.971,7.261l0,5.451c0,5.946 2.763,11.498 7.363,14.796l13.274,9.518c2.716,1.947 5.908,2.987 9.173,2.987l3.031,0c-4.358,0 -11.897,-11.053 -15.652,-17.024c-1.483,-2.358 -2.261,-5.064 -2.261,-7.844l0,-29.503c0,-1.846 1.665,-3.236 3.497,-2.918Z" style="fill:#e6b47d;fill-rule:nonzero;"/><g><path d="M23.372,144.722l-18.417,-18.284c-3.069,3.218 -4.955,7.51 -4.955,12.192l0,27.348c0,3.274 2.673,5.927 5.971,5.927l20.899,0l0,-18.8c0,-3.144 -1.258,-6.159 -3.498,-8.383Z" style="fill:#ffaf4b;fill-rule:nonzero;"/><path d="M131.875,144.722l18.417,-18.284c3.07,3.218 4.956,7.51 4.956,12.192l0,27.348c0,3.274 -2.674,5.927 -5.971,5.927l-20.899,0l0,-18.8c-0.001,-3.144 1.257,-6.159 3.497,-8.383Z" style="fill:#ffaf4b;fill-rule:nonzero;"/></g><path d="M77.623,160.05c-3.297,0 -5.971,-2.654 -5.971,-5.928l0,-26.675l11.942,0l0,26.675c0.001,3.274 -2.672,5.928 -5.971,5.928Z" style="fill:#d5dcec;fill-rule:nonzero;"/><g><path d="M53.74,103.736l23.884,23.711c0,0 -9.743,2.419 -18.229,11.623c-1.251,1.357 -3.499,0.945 -4.133,-0.784c-2.543,-6.94 -7.699,-21.027 -9.68,-26.438c-0.469,-1.284 0.007,-2.717 1.152,-3.475l7.006,-4.637Z" style="fill:#e4eaf6;fill-rule:nonzero;"/><path d="M101.508,103.736l-23.885,23.711c0,0 9.743,2.419 18.229,11.623c1.251,1.357 3.499,0.945 4.133,-0.784c2.543,-6.94 7.7,-21.027 9.68,-26.438c0.47,-1.284 -0.006,-2.717 -1.151,-3.475l-7.006,-4.637Z" style="fill:#e4eaf6;fill-rule:nonzero;"/></g><g><ellipse cx="77.623" cy="151.158" rx="2.986" ry="2.964" style="fill:#ffaf4b;"/><ellipse cx="77.623" cy="139.303" rx="2.986" ry="2.964" style="fill:#ffaf4b;"/></g><path d="M66.629,88.095c0.002,4.745 5.029,8.588 11.227,8.585c6.198,-0.003 11.221,-3.852 11.219,-8.597l-11.223,0.006l-11.223,0.006Z" style="fill:#fff;"/><g id="eye"><ellipse cx="63.457" cy="62.956" rx="7.516" ry="3.906" style="fill:#fff;"/><ellipse cx="62.84" cy="63.39" rx="3.447" ry="3.472" style="fill:url(#_Radial1);"/><ellipse cx="63.043" cy="65.194" rx="1.217" ry="1.275" style="fill:#333;"/><ellipse cx="62.638" cy="64.76" rx="0.406" ry="0.407" style="fill:#fff;"/></g><path d="M52.268,53.046c0,-1.123 3.587,-3.196 4.464,-3.49c5.205,-1.746 7.622,-1.688 11.958,1.406" style="fill:none;stroke:#785550;stroke-width:2.73px;"/><path d="M101.508,53.046c0,-1.123 -3.582,-3.214 -4.464,-3.49c-5.381,-1.681 -7.623,-1.688 -11.959,1.406" style="fill:none;stroke:#785550;stroke-width:2.73px;"/><g id="eye1" serif:id="eye"><ellipse cx="92.601" cy="62.956" rx="7.516" ry="3.906" style="fill:#fff;"/><ellipse cx="91.635" cy="63.39" rx="3.447" ry="3.472" style="fill:url(#_Radial2);"/><ellipse cx="91.432" cy="65.194" rx="1.217" ry="1.275" style="fill:#333;"/><ellipse cx="91.026" cy="64.76" rx="0.406" ry="0.407" style="fill:#fff;"/></g><path d="M75.515,60.728c0,4.035 -3.018,9.079 -1.501,13.206c0.779,2.119 2.371,2.32 4.228,2.455c0.293,0.021 2.084,0.267 2.084,0.13" style="fill:none;stroke:#e2b47d;stroke-width:2.73px;"/><g id="glasses"><path d="M105.27,59.485c0,-1.729 -1.404,-3.133 -3.133,-3.133l-15.724,0c-1.729,0 -3.132,1.404 -3.132,3.133l0,6.265c0,1.729 1.403,3.132 3.132,3.132l15.724,0c1.729,0 3.133,-1.403 3.133,-3.132l0,-6.265Z" style="fill:none;stroke:#282828;stroke-width:2.47px;stroke-linecap:round;stroke-linejoin:round;"/><path d="M105.27,62.867l10.088,-6.515" style="fill:none;stroke:#282828;stroke-width:2.59px;stroke-linecap:round;stroke-linejoin:round;"/><path d="M71.699,59.485c0,-1.729 -1.404,-3.133 -3.133,-3.133l-15.724,0c-1.729,0 -3.133,1.404 -3.133,3.133l0,6.265c0,1.729 1.404,3.132 3.133,3.132l15.724,0c1.729,0 3.133,-1.403 3.133,-3.132l0,-6.265Z" style="fill:none;stroke:#282828;stroke-width:2.47px;stroke-linecap:round;stroke-linejoin:round;"/><path d="M73.346,62.867c2.937,-2.307 5.699,-2.307 8.288,0" style="fill:none;stroke:#282828;stroke-width:2.59px;stroke-linecap:round;stroke-linejoin:round;"/><path d="M49.637,61.653l-12.42,-6.387" style="fill:none;stroke:#282828;stroke-width:2.59px;stroke-linecap:round;stroke-linejoin:round;"/></g><path d="M74.638,0c-20.898,0 -23.884,8.892 -23.884,8.892c-11.942,0 -17.913,2.964 -17.913,14.819c0,7.966 2.985,32.603 2.985,32.603l5.971,2.964l5.565,-20.763c0,0 27.276,8.907 63.102,8.907l2.986,11.856l4.404,-1.687c0,0 4.553,-19.061 4.553,-30.916c-0.001,-17.783 -23.885,-26.675 -47.769,-26.675Z" style="fill:#8c6450;fill-rule:nonzero;"/><path d="M50.754,8.892c-11.942,0 -17.913,2.964 -17.913,14.819c0,7.966 4.376,35.338 4.376,35.338l4.58,0.229l5.565,-20.763c0,0 27.276,8.907 63.102,8.907c-41.797,-8.891 -59.71,-29.639 -59.71,-38.53Z" style="fill:#7d5541;fill-rule:nonzero;"/></g><defs><radialGradient id="_Radial1" cx="0" cy="0" r="1" gradientUnits="userSpaceOnUse" gradientTransform="matrix(3.44718,0,0,3.44718,62.8405,63.3896)"><stop offset="0" style="stop-color:#3855ab;stop-opacity:1"/><stop offset="1" style="stop-color:#4493a5;stop-opacity:1"/></radialGradient><radialGradient id="_Radial2" cx="0" cy="0" r="1" gradientUnits="userSpaceOnUse" gradientTransform="matrix(3.44718,0,0,3.44718,91.6346,63.3896)"><stop offset="0" style="stop-color:#3855ab;stop-opacity:1"/><stop offset="1" style="stop-color:#4493a5;stop-opacity:1"/></radialGradient></defs></svg>