<?xml version="1.0" encoding="UTF-8" standalone="no"?><!DOCTYPE svg PUBLIC "-//W3C//DTD SVG 1.1//EN" "http://www.w3.org/Graphics/SVG/1.1/DTD/svg11.dtd"><svg width="100%" height="100%" viewBox="0 0 1287 1371" version="1.1" xmlns="http://www.w3.org/2000/svg" xmlns:xlink="http://www.w3.org/1999/xlink" xml:space="preserve" xmlns:serif="http://www.serif.com/" style="fill-rule:evenodd;clip-rule:evenodd;stroke-linejoin:round;stroke-miterlimit:1.41421;"><g id="project_background"><path d="M0,1359.11l0,-1295.39c242.571,-151.433 1048.75,76.7 1288.33,2.64l0,1292.75c0,0 0,-30.038 0,-30.038c-466.388,-75.48 -797.212,107.089 -1288.33,0l0,30.038Z" style="fill:url(#_Linear1);"/><g id="project_stripes"><path d="M853.44,1319.57l550.677,-550.677l78.608,78.607l-462.913,462.913c-56.574,0.859 -111.797,4.346 -166.372,9.157Z" style="fill:#03c9f1;"/><path d="M982.62,1311.34l346.418,-346.417l100.361,100.361l-250.362,250.361c-67.701,-5.723 -132.829,-6.523 -196.417,-4.305Z" style="fill:#ffc14a;"/><path d="M1159.48,1314.13l-1.979,-1.979l289.454,-289.454l93.664,93.664l-252.287,252.287l0,-39.57c-44.078,-7.133 -86.946,-11.962 -128.852,-14.948Z" style="fill:#f45247;"/></g></g><defs><linearGradient id="_Linear1" x1="0" y1="0" x2="1" y2="0" gradientUnits="userSpaceOnUse" gradientTransform="matrix(1259.15,1270.1,-1270.1,1259.15,0,73.282)"><stop offset="0" style="stop-color:#202020;stop-opacity:1"/><stop offset="0.58" style="stop-color:#2d2d2d;stop-opacity:1"/><stop offset="0.8" style="stop-color:#4a4a4a;stop-opacity:1"/><stop offset="1" style="stop-color:#666;stop-opacity:1"/></linearGradient></defs></svg>