<?xml version="1.0" encoding="UTF-8" standalone="no"?><!DOCTYPE svg PUBLIC "-//W3C//DTD SVG 1.1//EN" "http://www.w3.org/Graphics/SVG/1.1/DTD/svg11.dtd"><svg width="100%" height="100%" viewBox="0 0 191 192" version="1.1" xmlns="http://www.w3.org/2000/svg" xmlns:xlink="http://www.w3.org/1999/xlink" xml:space="preserve" xmlns:serif="http://www.serif.com/" style="fill-rule:evenodd;clip-rule:evenodd;stroke-linejoin:round;stroke-miterlimit:1.41421;"><g id="skillcamp_logo"><ellipse cx="95.702" cy="95.763" rx="94.491" ry="94.783" style="fill:#ffc14a;"/><path id="a6PkYoUHCJ" d="M124.223,89.428c1.943,-4.323 6.121,-6.83 10.979,-7.801c0.68,-0.125 7.837,-1.316 6.348,0.752c-0.421,0.564 -1.555,0.721 -2.138,0.909c-11.724,4.167 -8.485,18.015 -5.635,26.505c2.332,7.049 4.89,14.067 3.821,21.524c-0.906,6.423 -3.983,12.501 -8.808,17.263c-3.757,3.666 -9.004,6.955 -13.797,9.367c-4.535,2.225 -10.332,3.729 -15.351,4.513c-18.461,2.819 -38.767,-7.457 -45.277,-23.874c-5.473,-13.942 2.267,-26.756 5.052,-40.322c1.555,-7.457 1.781,-16.731 -7.773,-19.425c-0.745,-0.219 -1.813,-0.157 -2.169,-0.878c-0.68,-1.441 1.878,-1.722 2.818,-1.942c0.615,-0.125 1.1,-0.188 1.263,-0.188c4.533,-0.282 8.711,1.754 11.723,4.793c1.555,1.567 2.753,3.729 3.531,5.734c0.42,1.034 0.55,3.822 1.878,4.292c1.101,0.408 1.943,-1.503 2.364,-2.067c3.919,-5.828 8.258,-10.841 13.732,-15.572c11.367,-9.837 28.695,-22.463 21.666,-39.068c-0.583,-1.41 -1.36,-2.757 -2.299,-3.979c-0.453,-0.627 -2.073,-2.413 -0.421,-2.382c2.656,0.095 6.704,4.011 8.323,5.703c9.49,9.962 10.202,24.281 7.611,36.719c-0.777,3.759 -1.878,7.394 -3.141,11.028c-1.231,3.509 -3.012,6.862 -3.563,10.558c-0.259,1.786 -0.292,4.668 1.879,5.483c4.533,1.754 6.185,-5.013 7.384,-7.645Zm-17.878,41.143c-2.299,1.63 -5.698,2.538 -8.126,0.658c-2.266,-1.754 -2.331,-4.135 -1.619,-6.548c1.198,-4.292 4.629,-7.456 5.503,-11.905c1.392,-6.924 -0.065,-14.788 -5.179,-20.145c-0.421,-0.439 -2.266,-2.726 -2.201,-0.972c0,0.846 0.485,1.535 0.711,2.318c0.292,0.909 0.357,2.319 0.098,3.227c-1.36,5.139 -5.31,8.523 -9.55,12.502c-5.148,4.762 -10.198,9.555 -11.298,16.51c-1.781,11.185 7.122,23.78 22.661,21.273c9.194,-1.503 18.743,-9.242 16.834,-18.609c-0.259,-1.191 -2.655,-6.298 -4.565,-5.953c-0.227,0.846 0.324,1.692 0.324,2.537c0,0.627 -0.357,1.317 -0.648,1.88c-0.68,1.285 -1.715,2.381 -2.945,3.227Z" style="fill-rule:nonzero;"/></g></svg>