<?xml version="1.0" encoding="UTF-8" standalone="no"?><!DOCTYPE svg PUBLIC "-//W3C//DTD SVG 1.1//EN" "http://www.w3.org/Graphics/SVG/1.1/DTD/svg11.dtd"><svg width="100%" height="100%" viewBox="0 0 189 190" version="1.1" xmlns="http://www.w3.org/2000/svg" xmlns:xlink="http://www.w3.org/1999/xlink" xml:space="preserve" xmlns:serif="http://www.serif.com/" style="fill-rule:evenodd;clip-rule:evenodd;stroke-linejoin:round;stroke-miterlimit:1.41421;"><g id="skillbot_logo"><ellipse cx="94.491" cy="94.783" rx="94.491" ry="94.783" style="fill:#f66b63;"/><path d="M94.669,36.049c-0.69,0 -1.356,-0.105 -1.983,-0.301l0,9.48l3.966,0l0,-9.48c-0.627,0.196 -1.293,0.301 -1.983,0.301Z" style="fill:#135693;fill-rule:nonzero;"/><ellipse cx="94.669" cy="29.344" rx="6.95" ry="6.971" style="fill:#6bc1dd;"/><path d="M93.569,29.344c0,-2.802 1.648,-5.216 4.025,-6.325c-0.89,-0.414 -1.88,-0.647 -2.925,-0.647c-3.839,0 -6.95,3.122 -6.95,6.972c0,3.85 3.111,6.971 6.95,6.971c1.045,0 2.035,-0.233 2.925,-0.648c-2.377,-1.108 -4.025,-3.522 -4.025,-6.323Z" style="fill:#440075;fill-opacity:0.15;fill-rule:nonzero;"/><g><path d="M138.97,56.109l-4.099,0l0,37.925l4.099,0c2.247,0 4.085,-1.844 4.085,-4.098l0,-29.729c0,-2.254 -1.838,-4.098 -4.085,-4.098Z" style="fill:#9ea7af;fill-rule:nonzero;"/><path d="M54.466,56.109l-4.369,0c-2.246,0 -4.085,1.844 -4.085,4.098l0,29.729c0,2.254 1.839,4.098 4.085,4.098l4.369,0l0,-37.925Z" style="fill:#9ea7af;fill-rule:nonzero;"/></g><g><path d="M57.252,143.649l-5.614,0c-1.917,0 -3.697,-0.584 -5.174,-1.584l0,13.343c0,1.503 1.225,2.732 2.723,2.732l8.065,0l0,-14.491Z" style="fill:#c5ccd3;fill-rule:nonzero;"/><path d="M137.7,143.649l-5.614,0l0,14.491l8.065,0c1.498,0 2.723,-1.229 2.723,-2.732l0,-13.343c-1.477,1 -3.258,1.584 -5.174,1.584Z" style="fill:#c5ccd3;fill-rule:nonzero;"/></g><path d="M52.183,155.408l0,-11.759l-0.545,0c-1.917,0 -3.697,-0.584 -5.174,-1.584l0,13.343c0,1.503 1.225,2.732 2.723,2.732l5.72,0c-1.498,0 -2.724,-1.229 -2.724,-2.732Z" style="fill:#440075;fill-opacity:0.15;fill-rule:nonzero;"/><g><path d="M57.252,122.764l-5.614,0c-5.114,0 -9.26,4.159 -9.26,9.288l0,2.732c0,5.129 4.146,9.288 9.26,9.288l5.614,0l0,-21.308Z" style="fill:#e6e9ed;fill-rule:nonzero;"/><path d="M137.7,122.764l-5.614,0l0,21.308l5.614,0c5.114,0 9.259,-4.159 9.259,-9.288l0,-2.732c0,-5.13 -4.146,-9.288 -9.259,-9.288Z" style="fill:#e6e9ed;fill-rule:nonzero;"/></g><path d="M48.915,134.784l0,-2.732c0,-5.13 4.146,-9.288 9.26,-9.288l-6.537,0c-5.114,0 -9.26,4.159 -9.26,9.288l0,2.732c0,5.129 4.146,9.288 9.26,9.288l6.537,0c-5.115,0 -9.26,-4.159 -9.26,-9.288Z" style="fill:#440075;fill-opacity:0.15;fill-rule:nonzero;"/><rect x="85.63" y="104.589" width="18.08" height="6.777" style="fill:#9ea7af;"/><rect x="85.63" y="104.589" width="6.588" height="6.777" style="fill:#440075;fill-opacity:0.15;"/><path d="M115.937,117.834l0,-4.408c0,-1.296 -1.057,-2.356 -2.349,-2.356l-38.63,0c-1.292,0 -2.349,1.06 -2.349,2.356l0,4.408l43.328,0Z" style="fill:#c5ccd3;fill-rule:nonzero;"/><path d="M80.754,117.834l0,-4.408c0,-1.296 1.057,-2.356 2.349,-2.356l-8.145,0c-1.292,0 -2.349,1.06 -2.349,2.356l0,4.408l8.145,0Z" style="fill:#440075;fill-opacity:0.15;fill-rule:nonzero;"/><path d="M128.265,117.369l-67.192,0c-2.247,0 -4.085,1.844 -4.085,4.097l0,36.674l75.362,0l0,-36.674c0,-2.253 -1.838,-4.097 -4.085,-4.097Z" style="fill:#9ea7af;fill-rule:nonzero;"/><path d="M68.874,117.369l-7.801,0c-2.247,0 -4.085,1.844 -4.085,4.097l0,36.674l7.801,0l0,-36.674c0,-2.253 1.838,-4.097 4.085,-4.097Z" style="fill:#440075;fill-opacity:0.15;fill-rule:nonzero;"/><path d="M135.136,100.807c0,2.253 -1.839,4.097 -4.085,4.097l-72.764,0c-2.247,0 -4.085,-1.844 -4.085,-4.097l0,-51.746c0,-2.254 1.838,-4.098 4.085,-4.098l72.764,0c2.246,0 4.085,1.844 4.085,4.098l0,51.746Z" style="fill:#c5ccd3;fill-rule:nonzero;"/><path d="M61.987,100.807l0,-51.746c0,-2.254 1.839,-4.098 4.086,-4.098l-7.786,0c-2.247,0 -4.085,1.844 -4.085,4.098l0,51.746c0,2.254 1.838,4.097 4.085,4.097l7.786,0c-2.247,0 -4.086,-1.844 -4.086,-4.097Z" style="fill:#440075;fill-opacity:0.15;fill-rule:nonzero;"/><path d="M125.469,75.011c0,7.817 -6.318,14.152 -14.111,14.152l-33.378,0c-7.794,0 -14.111,-6.336 -14.111,-14.152c0,-7.817 6.317,-14.153 14.111,-14.153l33.378,0c7.793,0 14.111,6.336 14.111,14.153Z" style="fill:#135693;fill-rule:nonzero;"/><path d="M71.792,75.011c0,-7.817 6.317,-14.153 14.11,-14.153l-7.922,0c-7.794,0 -14.111,6.336 -14.111,14.153c0,7.817 6.317,14.152 14.111,14.152l7.922,0c-7.793,0 -14.11,-6.336 -14.11,-14.152Z" style="fill:#440075;fill-opacity:0.15;fill-rule:nonzero;"/><g><ellipse cx="76.57" cy="75.011" rx="5.487" ry="5.525" style="fill:#6bc1dd;"/><ellipse cx="112.873" cy="75.011" rx="5.487" ry="5.525" style="fill:#6bc1dd;"/></g><path d="M119.01,158.14l0,-23.815c0,-1.502 -1.226,-2.732 -2.724,-2.732l-43.234,0c-1.498,0 -2.724,1.23 -2.724,2.732l0,23.815l48.682,0Z" style="fill:#135693;fill-rule:nonzero;"/><path d="M99.571,158.14l0,-7.681c0,-0.45 -0.368,-0.819 -0.817,-0.819l-8.17,0c-0.45,0 -0.817,0.369 -0.817,0.819l0,7.681l9.804,0Z" style="fill:#ffc502;fill-rule:nonzero;"/><g><path d="M83.23,140.144l-6.264,0c-1.095,0 -1.982,-0.89 -1.982,-1.989c0,-1.099 0.887,-1.989 1.982,-1.989l6.264,0c1.095,0 1.983,0.89 1.983,1.989c0,1.098 -0.888,1.989 -1.983,1.989Z" style="fill:#c5ccd3;fill-rule:nonzero;"/><path d="M80.507,144.999l-3.541,0c-1.095,0 -1.982,-0.891 -1.982,-1.989c0,-1.099 0.887,-1.989 1.982,-1.989l3.541,0c1.095,0 1.983,0.89 1.983,1.989c0,1.098 -0.888,1.989 -1.983,1.989Z" style="fill:#c5ccd3;fill-rule:nonzero;"/><path d="M83.23,149.854l-6.264,0c-1.095,0 -1.982,-0.89 -1.982,-1.989c0,-1.098 0.887,-1.988 1.982,-1.988l6.264,0c1.095,0 1.983,0.89 1.983,1.988c0,1.099 -0.888,1.989 -1.983,1.989Z" style="fill:#c5ccd3;fill-rule:nonzero;"/><path d="M79.69,154.709l-2.724,0c-1.095,0 -1.982,-0.89 -1.982,-1.989c0,-1.098 0.887,-1.989 1.982,-1.989l2.724,0c1.095,0 1.983,0.891 1.983,1.989c0,1.099 -0.888,1.989 -1.983,1.989Z" style="fill:#c5ccd3;fill-rule:nonzero;"/></g><path d="M111.472,152.711l-4.835,0c-1.147,0 -2.076,-0.932 -2.076,-2.083c0,-1.151 0.93,-2.084 2.076,-2.084l4.835,0c1.147,0 2.077,0.933 2.077,2.084c0,1.151 -0.93,2.083 -2.077,2.083Z" style="fill:#e6e9ed;fill-rule:nonzero;"/><ellipse cx="109.056" cy="141.116" rx="4.362" ry="4.375" style="fill:#5dc647;"/><path d="M99.692,143.404c0,0.462 -0.377,0.84 -0.837,0.84l-8.372,0c-0.46,0 -0.837,-0.378 -0.837,-0.84l0,-4.578c0,-0.462 0.377,-0.84 0.837,-0.84l8.372,0c0.46,0 0.837,0.378 0.837,0.84l0,4.578Z" style="fill:#6bc1dd;fill-rule:nonzero;"/></g></svg>