<?xml version="1.0" encoding="UTF-8" standalone="no"?><!DOCTYPE svg PUBLIC "-//W3C//DTD SVG 1.1//EN" "http://www.w3.org/Graphics/SVG/1.1/DTD/svg11.dtd"><svg width="100%" height="100%" viewBox="0 0 184 42" version="1.1" xmlns="http://www.w3.org/2000/svg" xmlns:xlink="http://www.w3.org/1999/xlink" xml:space="preserve" xmlns:serif="http://www.serif.com/" style="fill-rule:evenodd;clip-rule:evenodd;stroke-linejoin:round;stroke-miterlimit:1.41421;"><g id="logo"><text x="-1.155px" y="34.478px" style="font-family:'NunitoSans-SemiBold', 'Nunito Sans' 'Avenir', 'Helvetica';font-weight:600;font-size:36px;fill:#1b1b1b;">Skillcamp</text><path id="flame" d="M178.862,17.776c-0.326,0.72 -0.775,2.57 -2.006,2.09c-0.59,-0.222 -0.581,-1.01 -0.511,-1.499c0.15,-1.011 0.634,-1.927 0.968,-2.887c0.343,-0.994 0.642,-1.987 0.854,-3.016c0.703,-3.401 0.51,-7.316 -2.068,-10.04c-0.44,-0.463 -1.54,-1.534 -2.261,-1.559c-0.449,-0.009 -0.009,0.479 0.114,0.651c0.256,0.334 0.467,0.702 0.625,1.088c1.909,4.54 -2.798,7.993 -5.886,10.683c-1.487,1.294 -2.666,2.664 -3.73,4.258c-0.114,0.154 -0.343,0.677 -0.642,0.565c-0.361,-0.128 -0.396,-0.891 -0.51,-1.173c-0.212,-0.549 -0.537,-1.14 -0.959,-1.568c-0.819,-0.831 -1.954,-1.388 -3.185,-1.311c-0.044,0 -0.176,0.017 -0.343,0.051c-0.256,0.06 -0.95,0.137 -0.766,0.532c0.097,0.197 0.387,0.179 0.59,0.239c2.595,0.737 2.533,3.273 2.111,5.312c-0.756,3.71 -2.859,7.214 -1.372,11.026c1.768,4.489 7.284,7.299 12.299,6.528c1.364,-0.214 2.938,-0.625 4.17,-1.234c1.302,-0.659 2.728,-1.559 3.748,-2.561c1.311,-1.302 2.147,-2.964 2.393,-4.721c0.29,-2.039 -0.405,-3.958 -1.038,-5.885c-0.774,-2.322 -1.654,-6.109 1.531,-7.248c0.158,-0.051 0.466,-0.094 0.58,-0.248c0.405,-0.566 -1.539,-0.24 -1.724,-0.206c-1.32,0.265 -2.455,0.951 -2.982,2.133Zm-4.857,11.25c0.334,-0.231 0.615,-0.531 0.8,-0.882c0.079,-0.154 0.176,-0.343 0.176,-0.514c0,-0.231 -0.15,-0.463 -0.088,-0.694c0.519,-0.094 1.17,1.302 1.24,1.628c0.519,2.561 -2.075,4.677 -4.573,5.089c-4.221,0.685 -6.64,-2.759 -6.156,-5.818c0.299,-1.901 1.671,-3.212 3.069,-4.514c1.152,-1.088 2.225,-2.014 2.595,-3.419c0.07,-0.248 0.052,-0.634 -0.027,-0.882c-0.061,-0.214 -0.193,-0.403 -0.193,-0.634c-0.018,-0.48 0.484,0.146 0.598,0.266c1.389,1.465 1.785,3.615 1.407,5.508c-0.238,1.217 -1.17,2.082 -1.495,3.256c-0.194,0.659 -0.176,1.31 0.44,1.79c0.659,0.514 1.583,0.266 2.207,-0.18Z" style="fill:#1b1b1b;fill-rule:nonzero;"/></g></svg>