<?xml version="1.0" encoding="UTF-8" standalone="no"?><!DOCTYPE svg PUBLIC "-//W3C//DTD SVG 1.1//EN" "http://www.w3.org/Graphics/SVG/1.1/DTD/svg11.dtd"><svg width="100%" height="100%" viewBox="0 0 184 42" version="1.1" xmlns="http://www.w3.org/2000/svg" xmlns:xlink="http://www.w3.org/1999/xlink" xml:space="preserve" xmlns:serif="http://www.serif.com/" style="fill-rule:evenodd;clip-rule:evenodd;stroke-linejoin:round;stroke-miterlimit:1.41421;"><g id="logo"><path d="M4.695,33.974c-1.644,-0.528 -3.054,-1.308 -4.23,-2.34l1.332,-2.736c1.248,1.008 2.538,1.734 3.87,2.178c1.332,0.444 2.826,0.666 4.482,0.666c1.896,0 3.36,-0.354 4.392,-1.062c1.032,-0.708 1.548,-1.71 1.548,-3.006c0,-1.104 -0.48,-1.926 -1.44,-2.466c-0.96,-0.54 -2.496,-1.05 -4.608,-1.53c-2.016,-0.432 -3.672,-0.924 -4.968,-1.476c-1.296,-0.552 -2.31,-1.302 -3.042,-2.25c-0.732,-0.948 -1.098,-2.154 -1.098,-3.618c0,-1.488 0.39,-2.796 1.17,-3.924c0.78,-1.128 1.89,-2.01 3.33,-2.646c1.44,-0.636 3.108,-0.954 5.004,-0.954c1.776,0 3.45,0.27 5.022,0.81c1.572,0.54 2.862,1.314 3.87,2.322l-1.296,2.736c-1.176,-0.96 -2.382,-1.674 -3.618,-2.142c-1.236,-0.468 -2.55,-0.702 -3.942,-0.702c-1.824,0 -3.258,0.378 -4.302,1.134c-1.044,0.756 -1.566,1.806 -1.566,3.15c0,1.152 0.456,2.022 1.368,2.61c0.912,0.588 2.376,1.122 4.392,1.602c2.112,0.48 3.822,0.978 5.13,1.494c1.308,0.516 2.352,1.224 3.132,2.124c0.78,0.9 1.17,2.07 1.17,3.51c0,1.464 -0.39,2.748 -1.17,3.852c-0.78,1.104 -1.896,1.956 -3.348,2.556c-1.452,0.6 -3.174,0.9 -5.166,0.9c-1.968,0 -3.774,-0.264 -5.418,-0.792Z" style="fill:#1b1b1b;fill-rule:nonzero;"/><path d="M40.497,34.478l-4.608,0l-8.316,-8.28l0,8.28l-3.636,0l0,-25.38l3.636,0l0,15.732l7.704,-7.884l4.5,0l-8.316,8.424l9.036,9.108Z" style="fill:#1b1b1b;fill-rule:nonzero;"/><path d="M42.549,34.478l0,-17.568l3.636,0l0,17.568l-3.636,0Zm-0.252,-25.416l4.176,0l0,3.78l-4.176,0l0,-3.78Z" style="fill:#1b1b1b;fill-rule:nonzero;"/><rect x="51.261" y="9.098" width="3.636" height="25.38" style="fill:#1b1b1b;fill-rule:nonzero;"/><rect x="59.973" y="9.098" width="3.636" height="25.38" style="fill:#1b1b1b;fill-rule:nonzero;"/><path d="M71.763,33.614c-1.308,-0.744 -2.316,-1.794 -3.024,-3.15c-0.708,-1.356 -1.062,-2.946 -1.062,-4.77c0,-1.824 0.366,-3.432 1.098,-4.824c0.732,-1.392 1.764,-2.472 3.096,-3.24c1.332,-0.768 2.886,-1.152 4.662,-1.152c1.224,0 2.406,0.204 3.546,0.612c1.14,0.408 2.07,0.96 2.79,1.656l-1.116,2.592c-1.584,-1.296 -3.228,-1.944 -4.932,-1.944c-1.68,0 -2.994,0.546 -3.942,1.638c-0.948,1.092 -1.422,2.634 -1.422,4.626c0,1.968 0.468,3.486 1.404,4.554c0.936,1.068 2.256,1.602 3.96,1.602c1.704,0 3.348,-0.648 4.932,-1.944l1.116,2.628c-0.768,0.696 -1.728,1.242 -2.88,1.638c-1.152,0.396 -2.352,0.594 -3.6,0.594c-1.776,0 -3.318,-0.372 -4.626,-1.116Z" style="fill:#1b1b1b;fill-rule:nonzero;"/><path d="M98.655,18.242c1.14,1.176 1.71,2.964 1.71,5.364l0,10.872l-3.492,0l0,-2.916c-0.456,1.032 -1.134,1.818 -2.034,2.358c-0.9,0.54 -1.95,0.81 -3.15,0.81c-1.152,0 -2.208,-0.234 -3.168,-0.702c-0.96,-0.468 -1.71,-1.122 -2.25,-1.962c-0.54,-0.84 -0.81,-1.776 -0.81,-2.808c0,-1.272 0.33,-2.274 0.99,-3.006c0.66,-0.732 1.752,-1.254 3.276,-1.566c1.524,-0.312 3.618,-0.468 6.282,-0.468l0.828,0l0,-1.044c0,-1.344 -0.282,-2.316 -0.846,-2.916c-0.564,-0.6 -1.482,-0.9 -2.754,-0.9c-1.992,0 -3.984,0.612 -5.976,1.836l-1.08,-2.556c0.936,-0.648 2.07,-1.17 3.402,-1.566c1.332,-0.396 2.61,-0.594 3.834,-0.594c2.352,0 4.098,0.588 5.238,1.764Zm-3.078,12.438c0.84,-0.9 1.26,-2.058 1.26,-3.474l0,-0.936l-0.648,0c-1.872,0 -3.312,0.084 -4.32,0.252c-1.008,0.168 -1.728,0.45 -2.16,0.846c-0.432,0.396 -0.648,0.966 -0.648,1.71c0,0.84 0.306,1.542 0.918,2.106c0.612,0.564 1.398,0.846 2.358,0.846c1.32,0 2.4,-0.45 3.24,-1.35Z" style="fill:#1b1b1b;fill-rule:nonzero;"/><path d="M131.397,23.57l0,10.908l-3.636,0l0,-10.764c0,-1.488 -0.258,-2.574 -0.774,-3.258c-0.516,-0.684 -1.35,-1.026 -2.502,-1.026c-1.32,0 -2.364,0.456 -3.132,1.368c-0.768,0.912 -1.152,2.16 -1.152,3.744l0,9.936l-3.636,0l0,-10.764c0,-1.488 -0.264,-2.574 -0.792,-3.258c-0.528,-0.684 -1.356,-1.026 -2.484,-1.026c-1.344,0 -2.4,0.456 -3.168,1.368c-0.768,0.912 -1.152,2.16 -1.152,3.744l0,9.936l-3.636,0l0,-17.568l3.564,0l0,2.664c0.552,-0.984 1.296,-1.746 2.232,-2.286c0.936,-0.54 2.004,-0.81 3.204,-0.81c2.712,0 4.476,1.128 5.292,3.384c0.552,-1.056 1.344,-1.884 2.376,-2.484c1.032,-0.6 2.196,-0.9 3.492,-0.9c3.936,0 5.904,2.364 5.904,7.092Z" style="fill:#1b1b1b;fill-rule:nonzero;"/><path d="M149.847,17.63c1.188,0.768 2.112,1.848 2.772,3.24c0.66,1.392 0.99,3 0.99,4.824c0,1.8 -0.324,3.384 -0.972,4.752c-0.648,1.368 -1.566,2.424 -2.754,3.168c-1.188,0.744 -2.55,1.116 -4.086,1.116c-1.32,0 -2.484,-0.282 -3.492,-0.846c-1.008,-0.564 -1.776,-1.374 -2.304,-2.43l0,9.504l-3.636,0l0,-24.048l3.636,0l0,2.88c0.528,-1.056 1.296,-1.872 2.304,-2.448c1.008,-0.576 2.172,-0.864 3.492,-0.864c1.512,0 2.862,0.384 4.05,1.152Zm-1.242,12.618c0.864,-1.068 1.296,-2.586 1.296,-4.554c0,-1.992 -0.438,-3.54 -1.314,-4.644c-0.876,-1.104 -2.094,-1.656 -3.654,-1.656c-1.584,0 -2.802,0.54 -3.654,1.62c-0.852,1.08 -1.278,2.616 -1.278,4.608c0,1.992 0.426,3.528 1.278,4.608c0.852,1.08 2.07,1.62 3.654,1.62c1.584,0 2.808,-0.534 3.672,-1.602Z" style="fill:#1b1b1b;fill-rule:nonzero;"/><path id="flame" d="M178.862,17.776c-0.326,0.72 -0.775,2.57 -2.006,2.09c-0.59,-0.222 -0.581,-1.01 -0.511,-1.499c0.15,-1.011 0.634,-1.927 0.968,-2.887c0.343,-0.994 0.642,-1.987 0.854,-3.016c0.703,-3.401 0.51,-7.316 -2.068,-10.04c-0.44,-0.463 -1.54,-1.534 -2.261,-1.559c-0.449,-0.009 -0.009,0.479 0.114,0.651c0.256,0.334 0.467,0.702 0.625,1.088c1.909,4.54 -2.798,7.993 -5.886,10.683c-1.487,1.294 -2.666,2.664 -3.73,4.258c-0.114,0.154 -0.343,0.677 -0.642,0.565c-0.361,-0.128 -0.396,-0.891 -0.51,-1.173c-0.212,-0.549 -0.537,-1.14 -0.959,-1.568c-0.819,-0.831 -1.954,-1.388 -3.185,-1.311c-0.044,0 -0.176,0.017 -0.343,0.051c-0.256,0.06 -0.95,0.137 -0.766,0.532c0.097,0.197 0.387,0.179 0.59,0.239c2.595,0.737 2.533,3.273 2.111,5.312c-0.756,3.71 -2.859,7.214 -1.372,11.026c1.768,4.489 7.284,7.299 12.299,6.528c1.364,-0.214 2.938,-0.625 4.17,-1.234c1.302,-0.659 2.728,-1.559 3.748,-2.561c1.311,-1.302 2.147,-2.964 2.393,-4.721c0.29,-2.039 -0.405,-3.958 -1.038,-5.885c-0.774,-2.322 -1.654,-6.109 1.531,-7.248c0.158,-0.051 0.466,-0.094 0.58,-0.248c0.405,-0.566 -1.539,-0.24 -1.724,-0.206c-1.32,0.265 -2.455,0.951 -2.982,2.133Zm-4.857,11.25c0.334,-0.231 0.615,-0.531 0.8,-0.882c0.079,-0.154 0.176,-0.343 0.176,-0.514c0,-0.231 -0.15,-0.463 -0.088,-0.694c0.519,-0.094 1.17,1.302 1.24,1.628c0.519,2.561 -2.075,4.677 -4.573,5.089c-4.221,0.685 -6.64,-2.759 -6.156,-5.818c0.299,-1.901 1.671,-3.212 3.069,-4.514c1.152,-1.088 2.225,-2.014 2.595,-3.419c0.07,-0.248 0.052,-0.634 -0.027,-0.882c-0.061,-0.214 -0.193,-0.403 -0.193,-0.634c-0.018,-0.48 0.484,0.146 0.598,0.266c1.389,1.465 1.785,3.615 1.407,5.508c-0.238,1.217 -1.17,2.082 -1.495,3.256c-0.194,0.659 -0.176,1.31 0.44,1.79c0.659,0.514 1.583,0.266 2.207,-0.18Z" style="fill:#1b1b1b;fill-rule:nonzero;"/></g></svg>